<mxfile host="app.diagrams.net" modified="2024-07-16T20:02:43.557Z" agent="Mozilla/5.0 (Windows NT 10.0; Win64; x64) AppleWebKit/537.36 (KHTML, like Gecko) Chrome/126.0.0.0 Safari/537.36 Edg/126.0.0.0" etag="4xBSBV1Agt97BXHqllRW" version="24.6.5" type="github" pages="2">
  <diagram name="Page-1" id="74b105a0-9070-1c63-61bc-23e55f88626e">
    <mxGraphModel dx="2011" dy="999" grid="1" gridSize="10" guides="1" tooltips="1" connect="1" arrows="1" fold="1" page="1" pageScale="1.5" pageWidth="1169" pageHeight="826" background="none" math="0" shadow="0">
      <root>
        <mxCell id="0" style=";html=1;" />
        <mxCell id="1" style=";html=1;" parent="0" />
        <mxCell id="10b056a9c633e61c-18" style="edgeStyle=orthogonalEdgeStyle;rounded=0;html=1;endArrow=block;endFill=1;jettySize=auto;orthogonalLoop=1;strokeWidth=2;startArrow=none;startFill=0;" parent="1" source="10b056a9c633e61c-1" target="10b056a9c633e61c-2" edge="1">
          <mxGeometry relative="1" as="geometry" />
        </mxCell>
        <mxCell id="10b056a9c633e61c-1" value="Message Translator" style="strokeWidth=2;dashed=0;align=center;fontSize=12;shape=mxgraph.eip.message_translator;fillColor=#c0f5a9;verticalLabelPosition=bottom;verticalAlign=top;" parent="1" vertex="1">
          <mxGeometry x="382" y="590" width="150" height="90" as="geometry" />
        </mxCell>
        <mxCell id="10b056a9c633e61c-19" style="edgeStyle=orthogonalEdgeStyle;rounded=0;html=1;endArrow=block;endFill=1;jettySize=auto;orthogonalLoop=1;strokeWidth=2;startArrow=none;startFill=0;" parent="1" source="10b056a9c633e61c-2" target="10b056a9c633e61c-6" edge="1">
          <mxGeometry relative="1" as="geometry">
            <Array as="points">
              <mxPoint x="852" y="635" />
              <mxPoint x="852" y="440" />
            </Array>
          </mxGeometry>
        </mxCell>
        <mxCell id="10b056a9c633e61c-20" style="edgeStyle=orthogonalEdgeStyle;rounded=0;html=1;endArrow=block;endFill=1;jettySize=auto;orthogonalLoop=1;strokeWidth=2;startArrow=none;startFill=0;" parent="1" source="10b056a9c633e61c-2" target="10b056a9c633e61c-8" edge="1">
          <mxGeometry relative="1" as="geometry" />
        </mxCell>
        <mxCell id="10b056a9c633e61c-21" style="edgeStyle=orthogonalEdgeStyle;rounded=0;html=1;endArrow=block;endFill=1;jettySize=auto;orthogonalLoop=1;strokeWidth=2;startArrow=none;startFill=0;" parent="1" source="10b056a9c633e61c-2" target="10b056a9c633e61c-14" edge="1">
          <mxGeometry relative="1" as="geometry">
            <Array as="points">
              <mxPoint x="852" y="635" />
              <mxPoint x="852" y="885" />
            </Array>
          </mxGeometry>
        </mxCell>
        <mxCell id="10b056a9c633e61c-2" value="Recipient List" style="strokeWidth=2;dashed=0;align=center;fontSize=12;fillColor=#c0f5a9;verticalLabelPosition=bottom;verticalAlign=top;shape=mxgraph.eip.recipient_list;" parent="1" vertex="1">
          <mxGeometry x="632" y="590" width="150" height="90" as="geometry" />
        </mxCell>
        <mxCell id="10b056a9c633e61c-17" style="edgeStyle=orthogonalEdgeStyle;rounded=0;html=1;endArrow=block;endFill=1;jettySize=auto;orthogonalLoop=1;strokeWidth=2;startArrow=none;startFill=0;" parent="1" source="10b056a9c633e61c-4" target="10b056a9c633e61c-1" edge="1">
          <mxGeometry relative="1" as="geometry" />
        </mxCell>
        <mxCell id="10b056a9c633e61c-4" value="Message Endpoint" style="strokeWidth=2;dashed=0;align=center;fontSize=12;shape=rect;verticalLabelPosition=bottom;verticalAlign=top;fillColor=#c0f5a9" parent="1" vertex="1">
          <mxGeometry x="172" y="590" width="150" height="90" as="geometry" />
        </mxCell>
        <mxCell id="10b056a9c633e61c-5" value="" style="strokeWidth=1;dashed=0;align=center;fontSize=8;shape=rect;fillColor=#ffffff;strokeColor=#000000;" parent="10b056a9c633e61c-4" vertex="1">
          <mxGeometry x="85" y="25" width="40" height="40" as="geometry" />
        </mxCell>
        <mxCell id="10b056a9c633e61c-22" style="edgeStyle=orthogonalEdgeStyle;rounded=0;html=1;endArrow=block;endFill=1;jettySize=auto;orthogonalLoop=1;strokeWidth=2;startArrow=none;startFill=0;" parent="1" source="10b056a9c633e61c-6" target="10b056a9c633e61c-10" edge="1">
          <mxGeometry relative="1" as="geometry" />
        </mxCell>
        <mxCell id="10b056a9c633e61c-25" style="edgeStyle=orthogonalEdgeStyle;rounded=0;html=1;endArrow=block;endFill=1;jettySize=auto;orthogonalLoop=1;strokeWidth=2;startArrow=none;startFill=0;" parent="1" source="10b056a9c633e61c-6" target="10b056a9c633e61c-12" edge="1">
          <mxGeometry relative="1" as="geometry" />
        </mxCell>
        <mxCell id="10b056a9c633e61c-28" style="edgeStyle=orthogonalEdgeStyle;rounded=0;html=1;endArrow=block;endFill=1;jettySize=auto;orthogonalLoop=1;strokeWidth=2;startArrow=none;startFill=0;" parent="1" source="10b056a9c633e61c-10" target="10b056a9c633e61c-4" edge="1">
          <mxGeometry relative="1" as="geometry">
            <Array as="points">
              <mxPoint x="1267" y="310" />
              <mxPoint x="247" y="310" />
            </Array>
          </mxGeometry>
        </mxCell>
        <mxCell id="10b056a9c633e61c-6" value="Message Endpoint" style="strokeWidth=2;dashed=0;align=center;fontSize=12;shape=rect;verticalLabelPosition=top;verticalAlign=bottom;fillColor=#c0f5a9;labelPosition=center;" parent="1" vertex="1">
          <mxGeometry x="922" y="370" width="150" height="90" as="geometry" />
        </mxCell>
        <mxCell id="10b056a9c633e61c-7" value="" style="strokeWidth=1;dashed=0;align=center;fontSize=8;shape=rect;fillColor=#ffffff;strokeColor=#000000;" parent="10b056a9c633e61c-6" vertex="1">
          <mxGeometry x="85" y="25" width="40" height="40" as="geometry" />
        </mxCell>
        <mxCell id="10b056a9c633e61c-23" style="edgeStyle=orthogonalEdgeStyle;rounded=0;html=1;endArrow=block;endFill=1;jettySize=auto;orthogonalLoop=1;strokeWidth=2;startArrow=none;startFill=0;" parent="1" source="10b056a9c633e61c-8" target="10b056a9c633e61c-11" edge="1">
          <mxGeometry relative="1" as="geometry" />
        </mxCell>
        <mxCell id="10b056a9c633e61c-8" value="Message Endpoint" style="strokeWidth=2;dashed=0;align=center;fontSize=12;shape=rect;verticalLabelPosition=bottom;verticalAlign=top;fillColor=#c0f5a9" parent="1" vertex="1">
          <mxGeometry x="922" y="670" width="150" height="90" as="geometry" />
        </mxCell>
        <mxCell id="10b056a9c633e61c-9" value="" style="strokeWidth=1;dashed=0;align=center;fontSize=8;shape=rect" parent="10b056a9c633e61c-8" vertex="1">
          <mxGeometry x="85" y="25" width="40" height="40" as="geometry" />
        </mxCell>
        <mxCell id="10b056a9c633e61c-10" value="Message Translator" style="strokeWidth=2;dashed=0;align=center;fontSize=12;shape=mxgraph.eip.message_translator;fillColor=#c0f5a9;verticalLabelPosition=bottom;verticalAlign=top;" parent="1" vertex="1">
          <mxGeometry x="1192" y="370" width="150" height="90" as="geometry" />
        </mxCell>
        <mxCell id="10b056a9c633e61c-11" value="Message Translator" style="strokeWidth=2;dashed=0;align=center;fontSize=12;shape=mxgraph.eip.message_translator;fillColor=#c0f5a9;verticalLabelPosition=bottom;verticalAlign=top;" parent="1" vertex="1">
          <mxGeometry x="1192" y="670" width="150" height="90" as="geometry" />
        </mxCell>
        <mxCell id="10b056a9c633e61c-26" style="edgeStyle=orthogonalEdgeStyle;rounded=0;html=1;endArrow=block;endFill=1;jettySize=auto;orthogonalLoop=1;strokeWidth=2;startArrow=none;startFill=0;" parent="1" source="10b056a9c633e61c-12" target="10b056a9c633e61c-13" edge="1">
          <mxGeometry relative="1" as="geometry" />
        </mxCell>
        <mxCell id="10b056a9c633e61c-12" value="Deqad Letter Channel" style="strokeWidth=1;dashed=0;align=center;html=1;fontSize=8;shape=mxgraph.eip.deadLetterChannel;verticalLabelPosition=bottom;labelBackgroundColor=#ffffff;verticalAlign=top;" parent="1" vertex="1">
          <mxGeometry x="947" y="550" width="100" height="20" as="geometry" />
        </mxCell>
        <mxCell id="10b056a9c633e61c-27" style="edgeStyle=orthogonalEdgeStyle;rounded=0;html=1;endArrow=block;endFill=1;jettySize=auto;orthogonalLoop=1;strokeWidth=2;startArrow=none;startFill=0;" parent="1" source="10b056a9c633e61c-13" target="10b056a9c633e61c-15" edge="1">
          <mxGeometry relative="1" as="geometry" />
        </mxCell>
        <mxCell id="10b056a9c633e61c-13" value="Envelope Wrapper" style="strokeWidth=2;dashed=0;align=center;fontSize=12;fillColor=#c0f5a9;verticalLabelPosition=bottom;verticalAlign=top;shape=mxgraph.eip.envelope_wrapper;" parent="1" vertex="1">
          <mxGeometry x="1192" y="515" width="150" height="90" as="geometry" />
        </mxCell>
        <mxCell id="10b056a9c633e61c-24" style="edgeStyle=orthogonalEdgeStyle;rounded=0;html=1;endArrow=block;endFill=1;jettySize=auto;orthogonalLoop=1;strokeWidth=2;startArrow=none;startFill=0;" parent="1" source="10b056a9c633e61c-14" target="10b056a9c633e61c-16" edge="1">
          <mxGeometry relative="1" as="geometry" />
        </mxCell>
        <mxCell id="10b056a9c633e61c-14" value="" style="strokeWidth=2;dashed=0;align=center;fontSize=12;fillColor=#c0f5a9;verticalLabelPosition=bottom;verticalAlign=top;shape=mxgraph.eip.composed_message_processor;" parent="1" vertex="1">
          <mxGeometry x="922" y="840" width="150" height="90" as="geometry" />
        </mxCell>
        <mxCell id="10b056a9c633e61c-29" style="edgeStyle=orthogonalEdgeStyle;rounded=0;html=1;endArrow=block;endFill=1;jettySize=auto;orthogonalLoop=1;fontSize=12;strokeWidth=2;startArrow=none;startFill=0;" parent="1" source="10b056a9c633e61c-15" target="10b056a9c633e61c-4" edge="1">
          <mxGeometry relative="1" as="geometry">
            <Array as="points">
              <mxPoint x="1507" y="310" />
              <mxPoint x="247" y="310" />
            </Array>
          </mxGeometry>
        </mxCell>
        <mxCell id="10b056a9c633e61c-15" value="Message Store" style="strokeWidth=2;dashed=0;align=center;fontSize=12;verticalLabelPosition=bottom;verticalAlign=top;shape=mxgraph.eip.message_store;fillColor=#c0f5a9" parent="1" vertex="1">
          <mxGeometry x="1432" y="515" width="150" height="90" as="geometry" />
        </mxCell>
        <mxCell id="10b056a9c633e61c-16" value="Message Translator" style="strokeWidth=2;dashed=0;align=center;fontSize=12;shape=mxgraph.eip.message_translator;fillColor=#c0f5a9;verticalLabelPosition=bottom;verticalAlign=top;" parent="1" vertex="1">
          <mxGeometry x="1192" y="840" width="150" height="90" as="geometry" />
        </mxCell>
        <mxCell id="10b056a9c633e61c-30" value="Title" style="text;strokeColor=none;fillColor=none;html=1;fontSize=24;fontStyle=1;verticalAlign=middle;align=center;" parent="1" vertex="1">
          <mxGeometry x="80" y="40" width="1590" height="40" as="geometry" />
        </mxCell>
      </root>
    </mxGraphModel>
  </diagram>
  <diagram id="W9sFUsdh2USwCzas7Hn5" name="Page-2">
    <mxGraphModel dx="2004" dy="1154" grid="1" gridSize="10" guides="1" tooltips="1" connect="1" arrows="1" fold="1" page="1" pageScale="1" pageWidth="850" pageHeight="1100" math="0" shadow="0">
      <root>
        <mxCell id="0" />
        <mxCell id="1" parent="0" />
        <mxCell id="X6xJt2lfH_SQcMalsqX1-1" value="" style="image;aspect=fixed;perimeter=ellipsePerimeter;html=1;align=center;shadow=0;dashed=0;spacingTop=3;image=img/lib/active_directory/cell_phone.svg;" vertex="1" parent="1">
          <mxGeometry x="280" y="150" width="21" height="50" as="geometry" />
        </mxCell>
        <mxCell id="X6xJt2lfH_SQcMalsqX1-9" style="edgeStyle=orthogonalEdgeStyle;rounded=0;orthogonalLoop=1;jettySize=auto;html=1;exitX=1;exitY=0.5;exitDx=0;exitDy=0;entryX=0;entryY=0.5;entryDx=0;entryDy=0;" edge="1" parent="1" source="X6xJt2lfH_SQcMalsqX1-2" target="X6xJt2lfH_SQcMalsqX1-6">
          <mxGeometry relative="1" as="geometry" />
        </mxCell>
        <mxCell id="X6xJt2lfH_SQcMalsqX1-2" value="" style="image;html=1;image=img/lib/clip_art/computers/Server_Rack_Empty_128x128.png" vertex="1" parent="1">
          <mxGeometry x="170" y="490" width="80" height="80" as="geometry" />
        </mxCell>
        <mxCell id="X6xJt2lfH_SQcMalsqX1-18" style="edgeStyle=orthogonalEdgeStyle;rounded=0;orthogonalLoop=1;jettySize=auto;html=1;exitX=1;exitY=0.5;exitDx=0;exitDy=0;exitPerimeter=0;entryX=0.5;entryY=0;entryDx=0;entryDy=0;" edge="1" parent="1" source="X6xJt2lfH_SQcMalsqX1-3" target="X6xJt2lfH_SQcMalsqX1-14">
          <mxGeometry relative="1" as="geometry">
            <Array as="points">
              <mxPoint x="345" y="361" />
            </Array>
          </mxGeometry>
        </mxCell>
        <mxCell id="X6xJt2lfH_SQcMalsqX1-3" value="" style="outlineConnect=0;dashed=0;verticalLabelPosition=bottom;verticalAlign=top;align=center;html=1;shape=mxgraph.aws3.classic_load_balancer;fillColor=#F58534;gradientColor=none;rotation=90;" vertex="1" parent="1">
          <mxGeometry x="310.5" y="290" width="69" height="72" as="geometry" />
        </mxCell>
        <mxCell id="X6xJt2lfH_SQcMalsqX1-6" value="" style="image;html=1;image=img/lib/clip_art/computers/Server_Rack_Empty_128x128.png" vertex="1" parent="1">
          <mxGeometry x="304.5" y="490" width="80" height="80" as="geometry" />
        </mxCell>
        <mxCell id="X6xJt2lfH_SQcMalsqX1-8" style="edgeStyle=orthogonalEdgeStyle;rounded=0;orthogonalLoop=1;jettySize=auto;html=1;" edge="1" parent="1" source="X6xJt2lfH_SQcMalsqX1-7" target="X6xJt2lfH_SQcMalsqX1-6">
          <mxGeometry relative="1" as="geometry" />
        </mxCell>
        <mxCell id="X6xJt2lfH_SQcMalsqX1-7" value="" style="image;html=1;image=img/lib/clip_art/computers/Server_Rack_Empty_128x128.png" vertex="1" parent="1">
          <mxGeometry x="415" y="490" width="80" height="80" as="geometry" />
        </mxCell>
        <mxCell id="X6xJt2lfH_SQcMalsqX1-10" value="" style="image;sketch=0;aspect=fixed;html=1;points=[];align=center;fontSize=12;image=img/lib/mscae/Managed_Desktop.svg;" vertex="1" parent="1">
          <mxGeometry x="319.5" y="157" width="50" height="36" as="geometry" />
        </mxCell>
        <mxCell id="X6xJt2lfH_SQcMalsqX1-14" value="" style="rounded=0;whiteSpace=wrap;html=1;fontSize=10;fillColor=none;" vertex="1" parent="1">
          <mxGeometry x="130" y="480" width="430" height="110" as="geometry" />
        </mxCell>
        <mxCell id="X6xJt2lfH_SQcMalsqX1-19" value="" style="edgeStyle=orthogonalEdgeStyle;rounded=0;orthogonalLoop=1;jettySize=auto;html=1;" edge="1" parent="1" source="X6xJt2lfH_SQcMalsqX1-17" target="X6xJt2lfH_SQcMalsqX1-3">
          <mxGeometry relative="1" as="geometry" />
        </mxCell>
        <mxCell id="X6xJt2lfH_SQcMalsqX1-17" value="" style="rounded=0;whiteSpace=wrap;html=1;fontSize=10;fillColor=none;" vertex="1" parent="1">
          <mxGeometry x="225" y="125" width="240" height="95" as="geometry" />
        </mxCell>
        <mxCell id="X6xJt2lfH_SQcMalsqX1-21" value="" style="rounded=0;whiteSpace=wrap;html=1;" vertex="1" parent="1">
          <mxGeometry x="170" y="20" width="340" height="60" as="geometry" />
        </mxCell>
        <mxCell id="X6xJt2lfH_SQcMalsqX1-20" value="Ecommerce Store" style="text;html=1;align=center;verticalAlign=middle;whiteSpace=wrap;rounded=0;spacing=10;" vertex="1" parent="1">
          <mxGeometry x="45" y="30" width="600" height="50" as="geometry" />
        </mxCell>
        <mxCell id="X6xJt2lfH_SQcMalsqX1-22" value="API" style="rounded=1;whiteSpace=wrap;html=1;" vertex="1" parent="1">
          <mxGeometry x="70" y="780" width="120" height="60" as="geometry" />
        </mxCell>
        <mxCell id="X6xJt2lfH_SQcMalsqX1-23" value="CART&lt;div&gt;SERVICE&lt;/div&gt;" style="rounded=1;whiteSpace=wrap;html=1;" vertex="1" parent="1">
          <mxGeometry x="260" y="780" width="120" height="60" as="geometry" />
        </mxCell>
        <mxCell id="X6xJt2lfH_SQcMalsqX1-25" value="" style="endArrow=classic;html=1;rounded=0;entryX=0.5;entryY=0;entryDx=0;entryDy=0;" edge="1" parent="1" target="X6xJt2lfH_SQcMalsqX1-22">
          <mxGeometry width="50" height="50" relative="1" as="geometry">
            <mxPoint x="340" y="590" as="sourcePoint" />
            <mxPoint x="390" y="540" as="targetPoint" />
          </mxGeometry>
        </mxCell>
        <mxCell id="X6xJt2lfH_SQcMalsqX1-28" value="" style="endArrow=classic;html=1;rounded=0;entryX=0.5;entryY=0;entryDx=0;entryDy=0;" edge="1" parent="1" target="X6xJt2lfH_SQcMalsqX1-23">
          <mxGeometry width="50" height="50" relative="1" as="geometry">
            <mxPoint x="340" y="590" as="sourcePoint" />
            <mxPoint x="390" y="540" as="targetPoint" />
          </mxGeometry>
        </mxCell>
        <mxCell id="X6xJt2lfH_SQcMalsqX1-29" value="ORDERS&lt;div&gt;SERVICE&lt;/div&gt;" style="rounded=0;whiteSpace=wrap;html=1;" vertex="1" parent="1">
          <mxGeometry x="460" y="780" width="120" height="60" as="geometry" />
        </mxCell>
        <mxCell id="X6xJt2lfH_SQcMalsqX1-30" value="" style="endArrow=classic;html=1;rounded=0;entryX=0.5;entryY=0;entryDx=0;entryDy=0;" edge="1" parent="1" target="X6xJt2lfH_SQcMalsqX1-29">
          <mxGeometry width="50" height="50" relative="1" as="geometry">
            <mxPoint x="340" y="590" as="sourcePoint" />
            <mxPoint x="390" y="540" as="targetPoint" />
          </mxGeometry>
        </mxCell>
        <mxCell id="X6xJt2lfH_SQcMalsqX1-31" value="" style="endArrow=classic;html=1;rounded=0;entryX=0;entryY=0.5;entryDx=0;entryDy=0;entryPerimeter=0;" edge="1" parent="1" target="X6xJt2lfH_SQcMalsqX1-32">
          <mxGeometry width="50" height="50" relative="1" as="geometry">
            <mxPoint x="580" y="810" as="sourcePoint" />
            <mxPoint x="690" y="880" as="targetPoint" />
          </mxGeometry>
        </mxCell>
        <mxCell id="X6xJt2lfH_SQcMalsqX1-32" value="" style="outlineConnect=0;dashed=0;verticalLabelPosition=bottom;verticalAlign=top;align=center;html=1;shape=mxgraph.aws3.queue;fillColor=#D9A741;gradientColor=none;rotation=90;" vertex="1" parent="1">
          <mxGeometry x="590" y="900" width="73.5" height="48" as="geometry" />
        </mxCell>
        <mxCell id="X6xJt2lfH_SQcMalsqX1-33" value="EMAIL&lt;div&gt;SERVICE&lt;/div&gt;" style="rounded=0;whiteSpace=wrap;html=1;" vertex="1" parent="1">
          <mxGeometry x="663.5" y="660" width="120" height="60" as="geometry" />
        </mxCell>
        <mxCell id="X6xJt2lfH_SQcMalsqX1-34" value="" style="endArrow=classic;html=1;rounded=0;exitX=0.5;exitY=0;exitDx=0;exitDy=0;exitPerimeter=0;entryX=0.384;entryY=0.987;entryDx=0;entryDy=0;entryPerimeter=0;" edge="1" parent="1" source="X6xJt2lfH_SQcMalsqX1-32" target="X6xJt2lfH_SQcMalsqX1-33">
          <mxGeometry width="50" height="50" relative="1" as="geometry">
            <mxPoint x="720" y="910" as="sourcePoint" />
            <mxPoint x="720" y="970" as="targetPoint" />
          </mxGeometry>
        </mxCell>
        <mxCell id="X6xJt2lfH_SQcMalsqX1-36" value="" style="endArrow=classic;html=1;rounded=0;entryX=0;entryY=0.5;entryDx=0;entryDy=0;" edge="1" parent="1" target="X6xJt2lfH_SQcMalsqX1-33">
          <mxGeometry width="50" height="50" relative="1" as="geometry">
            <mxPoint x="340" y="590" as="sourcePoint" />
            <mxPoint x="390" y="540" as="targetPoint" />
          </mxGeometry>
        </mxCell>
        <mxCell id="X6xJt2lfH_SQcMalsqX1-37" value="ASG AUTO SCALING" style="text;html=1;align=center;verticalAlign=middle;whiteSpace=wrap;rounded=0;" vertex="1" parent="1">
          <mxGeometry x="319.5" y="430" width="220" height="30" as="geometry" />
        </mxCell>
      </root>
    </mxGraphModel>
  </diagram>
</mxfile>
